HIERARCHY
ROOT Root
{
  OFFSET 0.0 0.0 0.0
  CHANNELS 6 Xposition Yposition Zposition Zrotation Yrotation Xrotation
  JOINT Hips
  {
    OFFSET 0.0 100.0 0.0
    CHANNELS 6 Xposition Yposition Zposition Zrotation Yrotation Xrotation
    JOINT Spine1
    {
      OFFSET -0.013727 5.003763 -0.053727
      CHANNELS 3 Zrotation Yrotation Xrotation
      JOINT Spine2
      {
        OFFSET -0.0 7.125301 -0.029825
        CHANNELS 3 Zrotation Yrotation Xrotation
        JOINT Chest
        {
          OFFSET -1e-06 7.550063 -0.815971
          CHANNELS 3 Zrotation Yrotation Xrotation
          JOINT Neck1
          {
            OFFSET -0.181677 26.311295 -0.553348
            CHANNELS 3 Zrotation Yrotation Xrotation
            JOINT Neck2
            {
              OFFSET -3e-06 7.709397 2.302585
              CHANNELS 3 Zrotation Yrotation Xrotation
              JOINT Head
              {
                OFFSET -5e-06 6.128916 1.953709
                CHANNELS 3 Zrotation Yrotation Xrotation
                JOINT HeadEnd
                {
                  OFFSET 0.003598 16.065403 -1.835379
                  CHANNELS 3 Zrotation Yrotation Xrotation
                }
                JOINT Jaw
                {
                  OFFSET 0.002637 0.475592 3.094941
                  CHANNELS 3 Zrotation Yrotation Xrotation
                }
                JOINT LeftEye
                {
                  OFFSET 3.206381 5.380205 7.586883
                  CHANNELS 3 Zrotation Yrotation Xrotation
                }
                JOINT RightEye
                {
                  OFFSET -3.22244 5.361869 7.558234
                  CHANNELS 3 Zrotation Yrotation Xrotation
                }
              }
            }
          }
          JOINT LeftShoulder
          {
            OFFSET 1.621652 23.237164 5.113413
            CHANNELS 3 Zrotation Yrotation Xrotation
            JOINT LeftArm
            {
              OFFSET 14.919846 2e-06 -5.502326
              CHANNELS 3 Zrotation Yrotation Xrotation
              JOINT LeftForeArm
              {
                OFFSET 28.739307 0.0 -0.002588
                CHANNELS 3 Zrotation Yrotation Xrotation
                JOINT LeftHand
                {
                  OFFSET 27.093981 -1e-06 0.002609
                  CHANNELS 3 Zrotation Yrotation Xrotation
                  JOINT LeftHandThumb1
                  {
                    OFFSET 2.276482 -1.392045 3.191413
                    CHANNELS 3 Zrotation Yrotation Xrotation
                    JOINT LeftHandThumb2
                    {
                      OFFSET 4.012836 -1.828127 1.641654
                      CHANNELS 3 Zrotation Yrotation Xrotation
                      JOINT LeftHandThumb3
                      {
                        OFFSET 2.798515 0.0 -3e-06
                        CHANNELS 3 Zrotation Yrotation Xrotation
                        JOINT LeftHandThumbEnd
                        {
                          OFFSET 3.180793 -4e-06 4e-06
                          CHANNELS 3 Zrotation Yrotation Xrotation
                        }
                      }
                    }
                  }
                  JOINT LeftHandIndex1
                  {
                    OFFSET 3.247555 -0.531998 2.296169
                    CHANNELS 3 Zrotation Yrotation Xrotation
                    JOINT LeftHandIndex2
                    {
                      OFFSET 6.364578 0.01206 0.1786
                      CHANNELS 3 Zrotation Yrotation Xrotation
                      JOINT LeftHandIndex3
                      {
                        OFFSET 3.662364 0.0 0.0
                        CHANNELS 3 Zrotation Yrotation Xrotation
                        JOINT LeftHandIndex4
                        {
                          OFFSET 2.329242 4e-06 4e-06
                          CHANNELS 3 Zrotation Yrotation Xrotation
                          JOINT LeftHandIndexEnd
                          {
                            OFFSET 2.759615 -0.180537 -0.113024
                            CHANNELS 3 Zrotation Yrotation Xrotation
                          }
                        }
                      }
                    }
                  }
                  JOINT LeftHandMiddle1
                  {
                    OFFSET 3.163495 0.240981 1.000332
                    CHANNELS 3 Zrotation Yrotation Xrotation
                    JOINT LeftHandMiddle2
                    {
                      OFFSET 6.19078 -0.259278 -1.002548
                      CHANNELS 3 Zrotation Yrotation Xrotation
                      JOINT LeftHandMiddle3
                      {
                        OFFSET 4.35652 -4e-06 -1e-06
                        CHANNELS 3 Zrotation Yrotation Xrotation
                        JOINT LeftHandMiddle4
                        {
                          OFFSET 2.996877 -8e-06 0.0
                          CHANNELS 3 Zrotation Yrotation Xrotation
                          JOINT LeftHandMiddleEnd
                          {
                            OFFSET 2.304287 -0.294569 -0.031741
                            CHANNELS 3 Zrotation Yrotation Xrotation
                          }
                        }
                      }
                    }
                  }
                  JOINT LeftHandRing1
                  {
                    OFFSET 2.882643 -0.053652 -0.322543
                    CHANNELS 3 Zrotation Yrotation Xrotation
                    JOINT LeftHandRing2
                    {
                      OFFSET 5.854541 -0.486202 -1.373841
                      CHANNELS 3 Zrotation Yrotation Xrotation
                      JOINT LeftHandRing3
                      {
                        OFFSET 4.350578 0.0 3e-06
                        CHANNELS 3 Zrotation Yrotation Xrotation
                        JOINT LeftHandRing4
                        {
                          OFFSET 2.651321 7e-06 2e-06
                          CHANNELS 3 Zrotation Yrotation Xrotation
                          JOINT LeftHandRingEnd
                          {
                            OFFSET 1.936105 0.077687 -7.1e-05
                            CHANNELS 3 Zrotation Yrotation Xrotation
                          }
                        }
                      }
                    }
                  }
                  JOINT LeftHandPinky1
                  {
                    OFFSET 2.8655 -0.310005 -1.600378
                    CHANNELS 3 Zrotation Yrotation Xrotation
                    JOINT LeftHandPinky2
                    {
                      OFFSET 5.087849 -1.331141 -1.77123
                      CHANNELS 3 Zrotation Yrotation Xrotation
                      JOINT LeftHandPinky3
                      {
                        OFFSET 3.070974 4e-06 0.0
                        CHANNELS 3 Zrotation Yrotation Xrotation
                        JOINT LeftHandPinky4
                        {
                          OFFSET 1.549672 0.0 1e-06
                          CHANNELS 3 Zrotation Yrotation Xrotation
                          JOINT LeftHandPinkyEnd
                          {
                            OFFSET 1.944893 -0.157802 0.057219
                            CHANNELS 3 Zrotation Yrotation Xrotation
                          }
                        }
                      }
                    }
                  }
                }
              }
            }
          }
          JOINT RightShoulder
          {
            OFFSET -1.380118 23.180309 5.214158
            CHANNELS 3 Zrotation Yrotation Xrotation
            JOINT RightArm
            {
              OFFSET -15.037196 1.2e-05 -5.545604
              CHANNELS 3 Zrotation Yrotation Xrotation
              JOINT RightForeArm
              {
                OFFSET -28.736639 2e-06 -0.002597
                CHANNELS 3 Zrotation Yrotation Xrotation
                JOINT RightHand
                {
                  OFFSET -27.133619 -0.0 0.002613
                  CHANNELS 3 Zrotation Yrotation Xrotation
                  JOINT RightHandThumb1
                  {
                    OFFSET -2.274032 -1.383988 3.163127
                    CHANNELS 3 Zrotation Yrotation Xrotation
                    JOINT RightHandThumb2
                    {
                      OFFSET -4.011429 -1.827466 1.640914
                      CHANNELS 3 Zrotation Yrotation Xrotation
                      JOINT RightHandThumb3
                      {
                        OFFSET -2.794935 -4e-06 -3e-06
                        CHANNELS 3 Zrotation Yrotation Xrotation
                        JOINT RightHandThumbEnd
                        {
                          OFFSET -3.183852 4e-06 1e-06
                          CHANNELS 3 Zrotation Yrotation Xrotation
                        }
                      }
                    }
                  }
                  JOINT RightHandIndex1
                  {
                    OFFSET -3.253266 -0.520057 2.282866
                    CHANNELS 3 Zrotation Yrotation Xrotation
                    JOINT RightHandIndex2
                    {
                      OFFSET -6.341917 0.012471 0.178266
                      CHANNELS 3 Zrotation Yrotation Xrotation
                      JOINT RightHandIndex3
                      {
                        OFFSET -3.654871 -8e-06 -0.0
                        CHANNELS 3 Zrotation Yrotation Xrotation
                        JOINT RightHandIndex4
                        {
                          OFFSET -2.327586 0.0 1e-06
                          CHANNELS 3 Zrotation Yrotation Xrotation
                          JOINT RightHandIndexEnd
                          {
                            OFFSET -2.76179 -0.180656 -0.113078
                            CHANNELS 3 Zrotation Yrotation Xrotation
                          }
                        }
                      }
                    }
                  }
                  JOINT RightHandMiddle1
                  {
                    OFFSET -3.168106 0.246593 1.00103
                    CHANNELS 3 Zrotation Yrotation Xrotation
                    JOINT RightHandMiddle2
                    {
                      OFFSET -6.180828 -0.258836 -1.000895
                      CHANNELS 3 Zrotation Yrotation Xrotation
                      JOINT RightHandMiddle3
                      {
                        OFFSET -4.348901 0.0 -0.0
                        CHANNELS 3 Zrotation Yrotation Xrotation
                        JOINT RightHandMiddle4
                        {
                          OFFSET -3.00024 -4e-06 -2e-06
                          CHANNELS 3 Zrotation Yrotation Xrotation
                          JOINT RightHandMiddleEnd
                          {
                            OFFSET -2.30252 -0.29437 -0.031706
                            CHANNELS 3 Zrotation Yrotation Xrotation
                          }
                        }
                      }
                    }
                  }
                  JOINT RightHandRing1
                  {
                    OFFSET -2.88569 -0.067952 -0.308858
                    CHANNELS 3 Zrotation Yrotation Xrotation
                    JOINT RightHandRing2
                    {
                      OFFSET -5.854198 -0.48613 -1.373731
                      CHANNELS 3 Zrotation Yrotation Xrotation
                      JOINT RightHandRing3
                      {
                        OFFSET -4.33881 -4e-06 -0.0
                        CHANNELS 3 Zrotation Yrotation Xrotation
                        JOINT RightHandRing4
                        {
                          OFFSET -2.654903 -4e-06 4e-06
                          CHANNELS 3 Zrotation Yrotation Xrotation
                          JOINT RightHandRingEnd
                          {
                            OFFSET -1.933568 0.077527 -5.2e-05
                            CHANNELS 3 Zrotation Yrotation Xrotation
                          }
                        }
                      }
                    }
                  }
                  JOINT RightHandPinky1
                  {
                    OFFSET -2.866425 -0.342796 -1.584145
                    CHANNELS 3 Zrotation Yrotation Xrotation
                    JOINT RightHandPinky2
                    {
                      OFFSET -5.091371 -1.332055 -1.772385
                      CHANNELS 3 Zrotation Yrotation Xrotation
                      JOINT RightHandPinky3
                      {
                        OFFSET -3.062664 -4e-06 1e-06
                        CHANNELS 3 Zrotation Yrotation Xrotation
                        JOINT RightHandPinky4
                        {
                          OFFSET -1.546529 4e-06 -2e-06
                          CHANNELS 3 Zrotation Yrotation Xrotation
                          JOINT RightHandPinkyEnd
                          {
                            OFFSET -1.945119 -0.157718 0.057211
                            CHANNELS 3 Zrotation Yrotation Xrotation
                          }
                        }
                      }
                    }
                  }
                }
              }
            }
          }
        }
      }
    }
    JOINT LeftLeg
    {
      OFFSET 10.043214 -8.434526 2.595655
      CHANNELS 3 Zrotation Yrotation Xrotation
      JOINT LeftShin
      {
        OFFSET -1e-06 -43.221752 -0.802913
        CHANNELS 3 Zrotation Yrotation Xrotation
        JOINT LeftFoot
        {
          OFFSET 1e-06 -42.155094 -3.481523
          CHANNELS 3 Zrotation Yrotation Xrotation
          JOINT LeftToeBase
          {
            OFFSET 0.0 -5.059472 13.231529
            CHANNELS 3 Zrotation Yrotation Xrotation
            JOINT LeftToeEnd
            {
              OFFSET -0.009607 -1.647619 6.513017
              CHANNELS 3 Zrotation Yrotation Xrotation
            }
          }
        }
      }
    }
    JOINT RightLeg
    {
      OFFSET -10.047278 -8.29526 2.620317
      CHANNELS 3 Zrotation Yrotation Xrotation
      JOINT RightShin
      {
        OFFSET 1e-06 -43.362206 -0.805556
        CHANNELS 3 Zrotation Yrotation Xrotation
        JOINT RightFoot
        {
          OFFSET 2e-06 -42.117393 -3.478398
          CHANNELS 3 Zrotation Yrotation Xrotation
          JOINT RightToeBase
          {
            OFFSET -0.0 -5.079609 13.284196
            CHANNELS 3 Zrotation Yrotation Xrotation
            JOINT RightToeEnd
            {
              OFFSET 0.009532 -1.634378 6.460591
              CHANNELS 3 Zrotation Yrotation Xrotation
            }
          }
        }
      }
    }
  }
}
MOTION
Frames: 4
Frame Time: 0.03333333333333333
0.0 0.0 0.0 0.0 -0.0 0.0 -0.056392 98.938545 36.90144 0.612121 1.284159 -5.904096 0.592342 -0.410893 1.259928 -0.42373 -0.736118 -4.551979 -0.867788 -3.379302 10.895886 -1.921498 3.659194 4.054918 -0.111753 2.019578 -3.581595 0.573953 2.343166 -11.652404 7.7e-05 -2.2e-05 6e-06 0.000333 -0.031409 0.025187 0.731887 -3.764415 -10.629104 -0.731021 3.709347 -10.644455 -8.592625 -7.416332 12.874033 -69.245132 -2.274339 3.687077 -0.412677 -21.297884 -0.040736 2.755745 5.200018 -8.099145 -5.882109 9.861291 0.70259 -10.936879 -0.360576 7.156212 2e-06 8.774831 -0.0 -16.418156 18.065189 5.992151 -1.844034 2.498505 -2.50728 -10.163606 4.678946 4.621112 -20.976038 -6e-06 2e-06 -21.226299 2.451696 -3.594001 1e-06 -6e-06 -1e-06 -1.362683 2.240799 -0.746324 -21.334929 0.584907 3.008326 -13.821221 -4e-06 2e-06 -23.887184 -0.24908 -0.839481 -61.024567 2.596292 -1.201302 -0.294024 1.679687 0.833256 -14.218218 0.093213 1.300581 -34.212074 -0.287567 0.967172 -20.033226 0.964536 1.212846 -1e-06 -1e-06 0.0 -3.440392 0.788233 0.501656 -15.928201 -3.167313 2.999711 -6.338831 -2e-06 2e-06 -18.123459 3.648183 -4.905673 -4e-06 -0.0 -2e-06 11.181214 7.985571 13.027405 69.661453 11.152429 12.349607 0.539815 16.556084 -0.003098 -2.949765 -13.159251 -11.476422 2.243543 -5.255038 -3.18016 14.282899 -0.826594 6.952508 -4e-06 -12.690609 1e-06 16.311663 -17.507034 2.228762 1.665666 -1.955922 -2.8783 4.727801 -4.170588 4.993927 11.020531 4e-06 -0.0 12.109058 -3.735717 -2.866784 1e-06 0.0 -0.0 1.291986 -1.92855 -1.49809 14.800138 0.567469 3.865611 14.242579 -1.341735 -6.66066 19.631975 0.143927 -0.648243 49.791195 -0.638937 -6.355545 0.353029 -1.511151 -0.03194 20.222803 3.684312 2.316633 18.787283 5e-06 2e-06 10.751633 -0.479869 1.397907 -0.0 0.0 -0.0 3.273808 0.305947 -0.580111 21.486826 11.830379 2.266136 8.162931 2e-06 0.0 18.399092 -3.798986 -4.940574 4e-06 -0.0 -1e-06 10.061421 7.761321 6.648153 -0.004056 -0.408843 7.294815 -11.488951 -5.347582 -6.218955 1.640611 -1.86157 0.624685 0.0 -0.0 2e-06 -11.01739 -9.146595 6.811209 -0.088285 0.177848 7.638869 8.667004 -1.082285 -6.699115 -1.429877 0.940907 0.598609 0.0 0.0 -1e-06 
0.0 0.0 0.0 0.0 -0.0 0.0 -0.376656 99.408134 37.357655 0.932085 1.775011 -5.619384 0.501644 -0.549951 0.670556 -0.465695 -0.889292 -4.762432 -0.787831 -3.779412 10.751597 -1.717796 3.518888 5.36111 -0.188838 1.561938 -3.58327 -0.022825 2.688237 -11.52147 7.7e-05 -2.3e-05 6e-06 -0.009749 -0.113243 0.046485 0.707044 -3.865036 -10.622657 -0.726639 3.642029 -10.659357 -5.948486 -8.295424 13.738274 -68.294296 -4.446118 3.993501 -1.573723 -22.651833 0.552603 5.320822 5.646998 -5.800643 -5.882107 9.861292 0.702592 -10.936877 -0.360575 7.156208 1e-06 8.774831 -1e-06 -16.355663 18.344326 6.001103 -1.844034 2.498506 -2.507278 -10.163604 4.678948 4.621109 -20.976032 -5e-06 3e-06 -21.226295 2.451698 -3.594 -0.0 -6e-06 -0.0 -1.362682 2.240799 -0.746323 -21.334923 0.584908 3.008324 -13.821219 -4e-06 3e-06 -23.887178 -0.24908 -0.839482 -61.201534 2.634427 -1.254973 -0.294025 1.679689 0.833256 -14.218214 0.093214 1.30058 -34.212063 -0.287566 0.967172 -20.033222 0.964536 1.212845 1e-06 -0.0 -1e-06 -3.44039 0.788234 0.501655 -15.928192 -3.167312 2.999708 -6.338829 -1e-06 2e-06 -18.123453 3.648185 -4.905672 -4e-06 0.0 -1e-06 8.153982 7.742022 12.678401 68.466827 16.159477 13.605827 0.900262 21.222317 0.152241 -6.063795 -15.210927 -7.192612 2.243543 -5.25504 -3.180159 14.282904 -0.826596 6.952507 -3e-06 -12.69061 3e-06 16.676785 -17.769325 1.748551 1.665668 -1.955922 -2.8783 4.727803 -4.170589 4.993927 11.020538 3e-06 -1e-06 12.109062 -3.735717 -2.866786 0.0 0.0 -0.0 1.291987 -1.92855 -1.49809 14.80014 0.567467 3.865609 14.242584 -1.341736 -6.660663 19.631979 0.143926 -0.648247 49.806698 -0.653731 -6.457885 0.35303 -1.511151 -0.03194 20.222811 3.684311 2.316631 18.787291 5e-06 -2e-06 10.751637 -0.479869 1.397907 1e-06 -0.0 -0.0 3.27381 0.305947 -0.580111 21.486834 11.830379 2.266133 8.162935 1e-06 0.0 18.399103 -3.798986 -4.940579 2e-06 -0.0 -1e-06 10.11528 9.072963 6.783336 -0.036429 -0.456322 7.465668 -11.770159 -6.507138 -5.544202 1.66805 -1.848521 -0.079408 0.0 -0.0 2e-06 -10.759709 -8.359179 5.831889 -0.091372 0.277557 10.123013 8.746603 -1.841743 -8.856038 -1.462467 0.986286 0.228078 -0.0 0.0 -1e-06 
0.0 0.0 0.0 0.0 -0.0 0.0 -0.770852 99.933464 38.019367 1.522347 2.095976 -5.214097 0.373206 -0.73645 0.156855 -0.540246 -1.154998 -5.043598 -0.72324 -4.355368 10.696304 -1.585886 3.567443 6.436932 -0.157478 1.509335 -3.618631 -1.034344 3.083314 -11.693975 7.7e-05 -2.3e-05 6e-06 -0.012316 -0.102079 0.074148 0.699071 -3.872481 -10.617613 -0.723407 3.669292 -10.67771 -3.334622 -8.971391 14.059902 -66.496674 -5.616833 3.728315 -2.373956 -26.039 1.110236 9.3572 4.942144 -1.472244 -5.882109 9.861288 0.702591 -10.936875 -0.360575 7.156208 1e-06 8.774828 -0.0 -16.119211 18.643927 6.054464 -1.844033 2.498504 -2.507277 -10.163604 4.678946 4.621109 -20.976032 -3e-06 2e-06 -21.226295 2.451698 -3.594001 -0.0 -6e-06 0.0 -1.362682 2.240798 -0.746324 -21.334921 0.584911 3.008324 -13.821219 -2e-06 2e-06 -23.887182 -0.249078 -0.839483 -61.409092 2.602098 -1.271237 -0.294024 1.679689 0.833256 -14.218214 0.093215 1.30058 -34.212063 -0.287564 0.96717 -20.03322 0.964537 1.212844 0.0 0.0 -0.0 -3.44039 0.788235 0.501654 -15.928194 -3.16731 2.999707 -6.338829 -1e-06 1e-06 -18.123457 3.648184 -4.905673 -2e-06 0.0 -2e-06 6.418666 7.02294 12.563728 63.529312 20.333017 14.914798 0.640763 30.446989 -0.014596 -12.043087 -14.111959 -1.616598 2.243545 -5.255042 -3.180161 14.28291 -0.826598 6.952507 -2e-06 -12.690619 2e-06 17.134956 -18.052046 1.26041 1.665669 -1.955923 -2.878302 4.727805 -4.170592 4.993929 11.020541 4e-06 -3e-06 12.109068 -3.735719 -2.866787 -0.0 0.0 -2e-06 1.291988 -1.928551 -1.498092 14.800146 0.567467 3.865611 14.242593 -1.341738 -6.660665 19.631992 0.143927 -0.648248 50.169163 -0.646851 -6.586635 0.353029 -1.511151 -0.031939 20.222818 3.684312 2.31663 18.787296 5e-06 -4e-06 10.751643 -0.479869 1.397905 1e-06 1e-06 1e-06 3.273811 0.305947 -0.580112 21.486837 11.830384 2.266131 8.162937 2e-06 0.0 18.399107 -3.798988 -4.940582 3e-06 0.0 -0.0 9.599581 9.723486 6.460272 -0.050812 -0.524172 8.010425 -11.919238 -6.18539 -4.204997 1.656439 -1.747574 -0.733944 -0.0 -0.0 2e-06 -10.803653 -7.43825 6.349476 -0.088722 0.277374 9.033991 9.252299 -2.46442 -8.925243 -1.473832 1.059017 -0.101068 0.0 0.0 -1e-06 
0.0 0.0 0.0 0.0 -0.0 0.0 -1.10829 100.476028 38.694443 2.194144 2.138669 -4.646839 0.355412 -0.971305 -0.309197 -0.590165 -1.397 -5.245253 -0.511969 -5.003355 10.719146 -1.630561 3.8001 6.816567 -0.122676 1.686734 -3.683312 -2.077796 3.265656 -12.101885 7.7e-05 -2.2e-05 6e-06 -0.018904 -0.105412 0.07374 0.680905 -3.890746 -10.642918 -0.71855 3.681142 -10.714924 -1.476085 -9.308486 14.133573 -63.997807 -5.739925 3.032766 -2.21775 -30.728495 1.203861 13.318567 3.596776 3.101025 -5.882104 9.861281 0.702588 -10.936871 -0.360576 7.156205 -0.0 8.774822 1e-06 -16.199539 18.942654 6.126613 -1.844033 2.498503 -2.507277 -10.163598 4.678942 4.621109 -20.976021 -5e-06 1e-06 -21.226284 2.451694 -3.593997 0.0 -6e-06 -0.0 -1.362681 2.240798 -0.746323 -21.334913 0.584907 3.008322 -13.821213 -5e-06 -1e-06 -23.887167 -0.249082 -0.839482 -61.608006 2.572302 -1.263713 -0.294025 1.679687 0.833256 -14.218207 0.093212 1.30058 -34.212048 -0.287567 0.96717 -20.033211 0.964535 1.212844 1e-06 1e-06 -1e-06 -3.440389 0.788233 0.501656 -15.928185 -3.167309 2.999704 -6.338826 -2e-06 0.0 -18.123444 3.64818 -4.90567 -4e-06 0.0 -1e-06 6.820444 6.278138 12.585929 56.013615 21.329222 14.658932 -0.279149 43.135548 -0.584456 -20.250242 -7.539131 6.838924 2.243542 -5.255036 -3.180157 14.282885 -0.826595 6.952503 -1e-06 -12.690603 -1e-06 18.276875 -18.173513 0.692841 1.665665 -1.955919 -2.878299 4.727797 -4.170585 4.993924 11.020521 1e-06 1e-06 12.109046 -3.735716 -2.866782 -0.0 1e-06 0.0 1.291985 -1.92855 -1.498088 14.800122 0.567468 3.86561 14.242564 -1.341736 -6.660652 19.631958 0.143926 -0.648241 51.117989 -0.567037 -6.599749 0.353027 -1.511149 -0.031939 20.222784 3.684307 2.316633 18.787268 4e-06 4e-06 10.751624 -0.47987 1.397906 0.0 -1e-06 1e-06 3.273804 0.305948 -0.58011 21.486803 11.83037 2.266136 8.162926 -1e-06 1e-06 18.399076 -3.798987 -4.94057 2e-06 -0.0 -3e-06 8.854243 10.098181 5.0313 -0.064438 -0.602559 10.253192 -12.173037 -5.61073 -2.656786 1.63742 -1.701991 -1.766153 -0.0 -0.0 2e-06 -11.065893 -6.789517 6.665257 -0.055762 0.243818 7.73711 9.883093 -2.273539 -8.199978 -1.490291 1.082907 -0.600585 0.0 0.0 -1e-06 
